<svg viewBox="0 0 1440 900" xmlns="http://www.w3.org/2000/svg">
  <defs>
    <!-- Ciel gradient — du violet nuit au noir profond -->
    <linearGradient id="sky" x1="0" y1="0" x2="0" y2="1">
      <stop offset="0%"   stop-color="#09071a"/>
      <stop offset="40%"  stop-color="#12083a"/>
      <stop offset="75%"  stop-color="#1a0b4e"/>
      <stop offset="100%" stop-color="#0d0520"/>
    </linearGradient>
    <!-- Lueur horizon -->
    <radialGradient id="horizon" cx="50%" cy="78%" r="55%">
      <stop offset="0%"   stop-color="#5b2de8" stop-opacity="0.45"/>
      <stop offset="45%"  stop-color="#3a1a9e" stop-opacity="0.2"/>
      <stop offset="100%" stop-color="#09071a" stop-opacity="0"/>
    </radialGradient>
    <!-- Lueur gauche -->
    <radialGradient id="glowL" cx="15%" cy="60%" r="40%">
      <stop offset="0%"   stop-color="#8b5cf6" stop-opacity="0.25"/>
      <stop offset="100%" stop-color="#09071a" stop-opacity="0"/>
    </radialGradient>
    <!-- Lueur droite -->
    <radialGradient id="glowR" cx="85%" cy="55%" r="38%">
      <stop offset="0%"   stop-color="#4f46e5" stop-opacity="0.2"/>
      <stop offset="100%" stop-color="#09071a" stop-opacity="0"/>
    </radialGradient>
    <!-- Fondu bas vers couleur bg site -->
    <linearGradient id="fadeBottom" x1="0" y1="0" x2="0" y2="1">
      <stop offset="60%"  stop-color="#09071a" stop-opacity="0"/>
      <stop offset="100%" stop-color="#0c0c18" stop-opacity="1"/>
    </linearGradient>
    <!-- Bokeh blur -->
    <filter id="bokeh" x="-30%" y="-30%" width="160%" height="160%">
      <feGaussianBlur stdDeviation="8"/>
    </filter>
    <filter id="blur2" x="-20%" y="-20%" width="140%" height="140%">
      <feGaussianBlur stdDeviation="3"/>
    </filter>
  </defs>

  <!-- Fond ciel nuit -->
  <rect width="1440" height="900" fill="url(#sky)"/>

  <!-- Étoiles — petits points lumineux -->
  <g fill="white" opacity="0.7">
    <circle cx="120"  cy="60"  r="0.8"/>
    <circle cx="245"  cy="35"  r="1.1"/>
    <circle cx="380"  cy="80"  r="0.7"/>
    <circle cx="510"  cy="22"  r="0.9"/>
    <circle cx="630"  cy="55"  r="1.3"/>
    <circle cx="720"  cy="18"  r="0.8"/>
    <circle cx="850"  cy="42"  r="0.6"/>
    <circle cx="970"  cy="70"  r="1.0"/>
    <circle cx="1100" cy="28"  r="0.9"/>
    <circle cx="1230" cy="55"  r="0.7"/>
    <circle cx="1360" cy="35"  r="1.1"/>
    <circle cx="60"   cy="130" r="0.6"/>
    <circle cx="195"  cy="110" r="0.8"/>
    <circle cx="320"  cy="145" r="1.0"/>
    <circle cx="455"  cy="105" r="0.7"/>
    <circle cx="590"  cy="130" r="0.9"/>
    <circle cx="700"  cy="95"  r="0.6"/>
    <circle cx="810"  cy="120" r="1.1"/>
    <circle cx="940"  cy="140" r="0.8"/>
    <circle cx="1060" cy="100" r="0.7"/>
    <circle cx="1180" cy="125" r="0.9"/>
    <circle cx="1310" cy="90"  r="0.8"/>
    <circle cx="1410" cy="115" r="0.6"/>
  </g>

  <!-- Silhouette collines / skyline lointaine -->
  <g opacity="0.6">
    <path d="M0 620 Q80 570 160 590 Q240 560 320 580 Q420 540 520 570 Q600 548 700 565 Q800 540 900 558 Q1000 530 1100 555 Q1200 540 1300 562 Q1380 550 1440 570 L1440 900 L0 900 Z" fill="#0e0820"/>
    <path d="M0 680 Q100 640 200 660 Q320 630 440 655 Q560 630 680 650 Q800 635 920 652 Q1040 632 1160 650 Q1280 635 1440 655 L1440 900 L0 900 Z" fill="#100924"/>
  </g>

  <!-- Skyline urbaine détaillée -->
  <g fill="#0a0720">
    <!-- Bâtiments fond gauche -->
    <rect x="0"    y="710" width="55"  height="190"/>
    <rect x="50"   y="730" width="35"  height="170"/>
    <rect x="80"   y="680" width="70"  height="220"/>
    <rect x="145"  y="700" width="45"  height="200"/>
    <rect x="185"  y="660" width="55"  height="240"/>
    <rect x="235"  y="715" width="40"  height="185"/>
    <!-- Immeuble haut centre-gauche -->
    <rect x="270"  y="580" width="85"  height="320"/>
    <rect x="268"  y="560" width="89"  height="25"/>
    <!-- Antenne -->
    <rect x="308"  y="520" width="4"   height="45"/>
    <rect x="375"  y="690" width="50"  height="210"/>
    <rect x="420"  y="660" width="60"  height="240"/>
    <rect x="475"  y="720" width="38"  height="180"/>
    <!-- Tour centrale -->
    <rect x="508"  y="550" width="95"  height="350"/>
    <rect x="505"  y="530" width="101" height="25"/>
    <rect x="548"  y="490" width="15"  height="45"/>
    <rect x="600"  y="690" width="48"  height="210"/>
    <rect x="643"  y="660" width="65"  height="240"/>
    <rect x="703"  y="715" width="42"  height="185"/>
    <!-- Grande tour droite -->
    <rect x="740"  y="540" width="105" height="360"/>
    <rect x="737"  y="518" width="111" height="26"/>
    <rect x="785"  y="475" width="14"  height="48"/>
    <rect x="840"  y="680" width="55"  height="220"/>
    <rect x="890"  y="705" width="45"  height="195"/>
    <rect x="930"  y="650" width="72"  height="250"/>
    <rect x="997"  y="710" width="40"  height="190"/>
    <rect x="1032" y="580" width="88"  height="320"/>
    <rect x="1115" y="695" width="52"  height="205"/>
    <rect x="1162" y="660" width="62"  height="240"/>
    <rect x="1219" y="715" width="38"  height="185"/>
    <rect x="1252" y="600" width="90"  height="300"/>
    <rect x="1337" y="680" width="55"  height="220"/>
    <rect x="1387" y="720" width="53"  height="180"/>
  </g>

  <!-- Fenêtres illuminées — jaune-blanc chaud -->
  <g opacity="0.85" filter="url(#blur2)">
    <rect x="282"  y="590" width="7" height="5" fill="#ffe8a0"/>
    <rect x="295"  y="590" width="7" height="5" fill="#fff0b0"/>
    <rect x="308"  y="590" width="7" height="5" fill="#ffe8a0"/>
    <rect x="282"  y="603" width="7" height="5" fill="#fff0b0"/>
    <rect x="308"  y="603" width="7" height="5" fill="#ffe8a0"/>
    <rect x="282"  y="616" width="7" height="5" fill="#ffe8a0"/>
    <rect x="295"  y="616" width="7" height="5" fill="#fff0b0"/>

    <rect x="520"  y="565" width="8" height="6" fill="#ffe8a0"/>
    <rect x="535"  y="565" width="8" height="6" fill="#fff4c0"/>
    <rect x="550"  y="565" width="8" height="6" fill="#ffe8a0"/>
    <rect x="565"  y="565" width="8" height="6" fill="#fff0b0"/>
    <rect x="520"  y="580" width="8" height="6" fill="#fff0b0"/>
    <rect x="550"  y="580" width="8" height="6" fill="#ffe8a0"/>
    <rect x="520"  y="595" width="8" height="6" fill="#ffe8a0"/>
    <rect x="535"  y="595" width="8" height="6" fill="#fff0b0"/>
    <rect x="565"  y="595" width="8" height="6" fill="#ffe8a0"/>

    <rect x="752"  y="555" width="9" height="6" fill="#ffe8a0"/>
    <rect x="768"  y="555" width="9" height="6" fill="#fff4c0"/>
    <rect x="784"  y="555" width="9" height="6" fill="#ffe8a0"/>
    <rect x="800"  y="555" width="9" height="6" fill="#fff0b0"/>
    <rect x="816"  y="555" width="9" height="6" fill="#ffe8a0"/>
    <rect x="752"  y="570" width="9" height="6" fill="#fff0b0"/>
    <rect x="784"  y="570" width="9" height="6" fill="#ffe8a0"/>
    <rect x="816"  y="570" width="9" height="6" fill="#fff4c0"/>
    <rect x="752"  y="585" width="9" height="6" fill="#ffe8a0"/>
    <rect x="768"  y="585" width="9" height="6" fill="#fff0b0"/>
    <rect x="800"  y="585" width="9" height="6" fill="#ffe8a0"/>

    <rect x="1040" y="594" width="8" height="5" fill="#ffe8a0"/>
    <rect x="1055" y="594" width="8" height="5" fill="#fff0b0"/>
    <rect x="1070" y="594" width="8" height="5" fill="#ffe8a0"/>
    <rect x="1040" y="607" width="8" height="5" fill="#fff4c0"/>
    <rect x="1070" y="607" width="8" height="5" fill="#ffe8a0"/>

    <rect x="1264" y="612" width="9" height="6" fill="#ffe8a0"/>
    <rect x="1280" y="612" width="9" height="6" fill="#fff0b0"/>
    <rect x="1296" y="612" width="9" height="6" fill="#ffe8a0"/>
    <rect x="1264" y="626" width="9" height="6" fill="#fff0b0"/>
    <rect x="1296" y="626" width="9" height="6" fill="#ffe8a0"/>
  </g>

  <!-- Fenêtres violettes — lumière IA / tech -->
  <g opacity="0.9" filter="url(#blur2)">
    <rect x="290"  y="640" width="7" height="5" fill="#a78bfa"/>
    <rect x="534"  y="615" width="8" height="6" fill="#8b5cf6"/>
    <rect x="565"  y="610" width="8" height="6" fill="#a78bfa"/>
    <rect x="769"  y="600" width="9" height="6" fill="#8b5cf6"/>
    <rect x="800"  y="600" width="9" height="6" fill="#a78bfa"/>
    <rect x="816"  y="615" width="9" height="6" fill="#7c3aed"/>
    <rect x="1055" y="615" width="8" height="5" fill="#8b5cf6"/>
    <rect x="1280" y="638" width="9" height="6" fill="#a78bfa"/>
  </g>

  <!-- Bokeh lights — halos de lumières de rue floutés -->
  <g filter="url(#bokeh)" opacity="0.6">
    <circle cx="150"  cy="780" r="12" fill="#ffe8a0"/>
    <circle cx="320"  cy="790" r="10" fill="#ffd080"/>
    <circle cx="490"  cy="785" r="14" fill="#ffe8a0"/>
    <circle cx="660"  cy="792" r="11" fill="#ffd080"/>
    <circle cx="830"  cy="785" r="13" fill="#ffe8a0"/>
    <circle cx="1000" cy="790" r="10" fill="#ffd080"/>
    <circle cx="1160" cy="785" r="12" fill="#ffe8a0"/>
    <circle cx="1320" cy="792" r="11" fill="#ffd080"/>
    <!-- Halos violets -->
    <circle cx="270"  cy="775" r="9"  fill="#8b5cf6"/>
    <circle cx="740"  cy="780" r="11" fill="#7c3aed"/>
    <circle cx="1090" cy="778" r="8"  fill="#8b5cf6"/>
    <circle cx="1380" cy="782" r="9"  fill="#7c3aed"/>
  </g>

  <!-- Lueurs ambiance -->
  <rect width="1440" height="900" fill="url(#horizon)"/>
  <rect width="1440" height="900" fill="url(#glowL)"/>
  <rect width="1440" height="900" fill="url(#glowR)"/>

  <!-- Fondu bas vers le fond du site -->
  <rect width="1440" height="900" fill="url(#fadeBottom)"/>
</svg>
